PathFileType	4	(X/Y/Z)	S240501-1155_P07_T01_0-394.trc
DataRate	CameraRate	NumFrames	NumMarkers	Units	OrigDataRate	OrigDataStartFrame	OrigNumFrames
60.0	60.0	15	13	m	60.0	246	394
Frame#	Time	Nose			LEye			LEar			LShoulder			LElbow			LWrist			LHip			REye			REar			RShoulder			RElbow			RWrist			RHip		
		X1	Y1	Z1	X2	Y2	Z2	X3	Y3	Z3	X4	Y4	Z4	X5	Y5	Z5	X6	Y6	Z6	X7	Y7	Z7	X8	Y8	Z8	X9	Y9	Z9	X10	Y10	Z10	X11	Y11	Z11	X12	Y12	Z12	X13	Y13	Z13

247	4.117	-0.05898	1.66142	0.17050	-0.08299	1.62260	0.19401	-0.05386	1.57093	0.29232	0.10818	1.50007	0.27691	0.30723	1.47412	0.13687	0.13001	1.60263	0.08945	0.53366	1.60220	0.21426	-0.08953	1.68778	0.19524	-0.06867	1.74063	0.29203	0.09973	1.82747	0.32197	0.32394	1.92537	0.25215	0.32372	1.90233	0.04268	0.52496	1.81811	0.21622
248	4.133	-0.05930	1.66114	0.17048	-0.08281	1.62226	0.19410	-0.05332	1.57029	0.29236	0.10766	1.49998	0.27697	0.30550	1.47352	0.13594	0.12791	1.60238	0.09266	0.53366	1.60220	0.21426	-0.08936	1.68743	0.19451	-0.06878	1.74057	0.29178	0.10004	1.82768	0.32160	0.32349	1.92564	0.25199	0.32371	1.90235	0.04223	0.52496	1.81811	0.21622
249	4.150	-0.05960	1.66097	0.17043	-0.08263	1.62207	0.19419	-0.05270	1.56974	0.29233	0.10719	1.50020	0.27723	0.30369	1.47326	0.13526	0.12591	1.60200	0.09563	0.53366	1.60220	0.21426	-0.08909	1.68702	0.19363	-0.06896	1.74039	0.29154	0.10045	1.82780	0.32119	0.32315	1.92591	0.25182	0.32376	1.90218	0.04169	0.52496	1.81811	0.21622
250	4.167	-0.05975	1.66083	0.17033	-0.08242	1.62198	0.19418	-0.05213	1.56939	0.29228	0.10670	1.50063	0.27769	0.30192	1.47337	0.13476	0.12386	1.60149	0.09844	0.53366	1.60220	0.21426	-0.08878	1.68660	0.19280	-0.06917	1.74020	0.29133	0.10084	1.82785	0.32082	0.32296	1.92610	0.25165	0.32384	1.90184	0.04125	0.52496	1.81811	0.21622
251	4.183	-0.05974	1.66065	0.17015	-0.08219	1.62200	0.19403	-0.05172	1.56927	0.29232	0.10617	1.50115	0.27832	0.30036	1.47379	0.13437	0.12166	1.60093	0.10105	0.53366	1.60220	0.21426	-0.08847	1.68623	0.19216	-0.06938	1.74006	0.29118	0.10114	1.82786	0.32054	0.32291	1.92612	0.25151	0.32392	1.90145	0.04097	0.52496	1.81811	0.21622
252	4.200	-0.05959	1.66033	0.16996	-0.08193	1.62213	0.19376	-0.05151	1.56942	0.29255	0.10565	1.50168	0.27911	0.29912	1.47440	0.13403	0.11943	1.60043	0.10336	0.53366	1.60220	0.21426	-0.08820	1.68595	0.19178	-0.06954	1.73993	0.29110	0.10133	1.82785	0.32038	0.32291	1.92588	0.25142	0.32393	1.90117	0.04082	0.52496	1.81811	0.21622
253	4.217	-0.05935	1.65990	0.16983	-0.08170	1.62233	0.19348	-0.05149	1.56977	0.29293	0.10528	1.50216	0.28003	0.29814	1.47507	0.13372	0.11734	1.59998	0.10526	0.53366	1.60220	0.21426	-0.08802	1.68580	0.19160	-0.06959	1.73973	0.29100	0.10144	1.82784	0.32034	0.32291	1.92543	0.25142	0.32386	1.90110	0.04073	0.52496	1.81811	0.21622
254	4.233	-0.05909	1.65944	0.16980	-0.08154	1.62257	0.19330	-0.05164	1.57020	0.29330	0.10512	1.50258	0.28099	0.29734	1.47566	0.13340	0.11555	1.59955	0.10675	0.53366	1.60220	0.21426	-0.08797	1.68579	0.19155	-0.06956	1.73940	0.29085	0.10151	1.82785	0.32042	0.32287	1.92493	0.25152	0.32374	1.90121	0.04076	0.52496	1.81811	0.21622
255	4.250	-0.05882	1.65908	0.16985	-0.08149	1.62281	0.19324	-0.05191	1.57061	0.29356	0.10512	1.50294	0.28180	0.29667	1.47613	0.13309	0.11410	1.59917	0.10789	0.53366	1.60220	0.21426	-0.08804	1.68589	0.19155	-0.06957	1.73896	0.29063	0.10157	1.82786	0.32065	0.32285	1.92452	0.25173	0.32363	1.90141	0.04099	0.52496	1.81811	0.21622
256	4.267	-0.05850	1.65889	0.16994	-0.08152	1.62302	0.19324	-0.05217	1.57094	0.29363	0.10516	1.50324	0.28232	0.29610	1.47649	0.13285	0.11294	1.59892	0.10876	0.53366	1.60220	0.21426	-0.08820	1.68604	0.19152	-0.06967	1.73853	0.29039	0.10168	1.82785	0.32102	0.32291	1.92426	0.25199	0.32357	1.90159	0.04150	0.52496	1.81811	0.21622
257	4.283	-0.05814	1.65884	0.17004	-0.08156	1.62319	0.19327	-0.05232	1.57119	0.29353	0.10512	1.50346	0.28256	0.29562	1.47671	0.13267	0.11199	1.59882	0.10944	0.53366	1.60220	0.21426	-0.08833	1.68620	0.19143	-0.06985	1.73828	0.29021	0.10186	1.82780	0.32153	0.32304	1.92406	0.25223	0.32354	1.90169	0.04226	0.52496	1.81811	0.21622
258	4.300	-0.05776	1.65886	0.17012	-0.08155	1.62336	0.19327	-0.05231	1.57142	0.29329	0.10489	1.50363	0.28259	0.29518	1.47670	0.13240	0.11123	1.59887	0.10999	0.53366	1.60220	0.21426	-0.08837	1.68635	0.19125	-0.07007	1.73837	0.29016	0.10206	1.82774	0.32210	0.32320	1.92388	0.25241	0.32356	1.90171	0.04315	0.52496	1.81811	0.21622
259	4.317	-0.05740	1.65892	0.17020	-0.08142	1.62354	0.19324	-0.05216	1.57168	0.29298	0.10448	1.50380	0.28249	0.29477	1.47641	0.13187	0.11064	1.59908	0.11047	0.53366	1.60220	0.21426	-0.08828	1.68649	0.19102	-0.07027	1.73879	0.29025	0.10220	1.82768	0.32265	0.32333	1.92372	0.25253	0.32364	1.90163	0.04394	0.52496	1.81811	0.21622
260	4.333	-0.05705	1.65901	0.17027	-0.08119	1.62377	0.19319	-0.05188	1.57201	0.29267	0.10398	1.50404	0.28234	0.29433	1.47593	0.13108	0.11008	1.59946	0.11094	0.53366	1.60220	0.21426	-0.08808	1.68664	0.19080	-0.07041	1.73941	0.29045	0.10225	1.82765	0.32316	0.32341	1.92360	0.25260	0.32378	1.90150	0.04450	0.52496	1.81811	0.21622
261	4.350	-0.05675	1.65917	0.17031	-0.08088	1.62405	0.19312	-0.05155	1.57240	0.29240	0.10351	1.50436	0.28220	0.29382	1.47549	0.13014	0.10939	1.59999	0.11144	0.53366	1.60220	0.21426	-0.08782	1.68683	0.19071	-0.07047	1.74003	0.29069	0.10226	1.82767	0.32370	0.32343	1.92353	0.25265	0.32395	1.90139	0.04477	0.52496	1.81811	0.21622
